<?xml version="1.0" standalone="no"?>
<!DOCTYPE svg PUBLIC "-//W3C//DTD SVG 20010904//EN"
 "http://www.w3.org/TR/2001/REC-SVG-20010904/DTD/svg10.dtd">
<svg version="1.0" xmlns="http://www.w3.org/2000/svg"
 width="400.000000pt" height="400.000000pt" viewBox="0 0 400.000000 400.000000"
 preserveAspectRatio="xMidYMid meet">
<metadata>
Created by potrace 1.11, written by Peter Selinger 2001-2013
</metadata>
<g transform="translate(0.000000,400.000000) scale(0.100000,-0.100000)"
fill="#000000" stroke="none">
<path d="M911 3383 c-84 -86 -103 -144 -108 -338 -5 -150 0 -224 33 -517 10
-86 16 -160 13 -163 -3 -3 -50 6 -104 21 -135 36 -207 31 -290 -18 -94 -56
-199 -211 -256 -375 -29 -86 -44 -233 -31 -326 18 -138 85 -212 277 -307 133
-66 184 -76 278 -57 40 9 92 18 117 22 85 12 321 155 374 228 18 25 21 43 21
140 0 196 -39 654 -75 887 -11 69 -36 204 -55 300 -24 121 -38 229 -46 350 -7
97 -17 180 -23 187 -6 6 -24 15 -39 19 -25 6 -35 0 -86 -53z m-132 -1293 c85
-62 143 -199 145 -343 l1 -80 -70 -24 c-85 -29 -221 -41 -284 -23 -50 13 -91
53 -128 125 -27 52 -41 151 -29 199 17 68 134 147 244 166 74 12 77 12 121
-20z"/>
<path d="M3480 3418 c-53 -36 -98 -102 -122 -181 -21 -64 -23 -91 -22 -252 1
-118 8 -238 22 -350 12 -93 22 -194 22 -223 0 -46 -2 -53 -17 -48 -82 26 -187
46 -238 46 -52 0 -70 -5 -121 -35 -109 -65 -202 -192 -265 -364 -27 -74 -32
-103 -36 -211 -7 -171 5 -224 65 -291 60 -67 171 -139 270 -177 107 -41 140
-45 217 -27 36 8 79 15 96 15 70 0 251 98 352 190 l60 56 5 79 c5 88 -20 494
-44 700 -20 179 -39 300 -79 505 -42 216 -55 316 -55 441 0 78 -3 101 -17 117
-28 32 -56 35 -93 10z m-191 -1312 c30 -16 92 -81 111 -116 29 -55 52 -143 58
-227 l7 -92 -55 -21 c-107 -39 -221 -50 -306 -29 -79 20 -150 127 -161 243
-13 141 85 222 310 255 4 0 20 -5 36 -13z"/>
<path d="M1712 2560 c-158 -20 -259 -67 -358 -165 -54 -53 -77 -86 -99 -138
-28 -66 -28 -67 -9 -88 54 -60 110 -62 224 -9 l85 40 7 -88 c3 -48 11 -161 18
-252 30 -424 108 -936 195 -1275 45 -176 49 -185 80 -185 38 0 74 22 135 84
l54 56 -2 97 c-4 181 -41 667 -62 813 -16 107 -18 102 57 129 275 95 478 245
534 392 20 54 24 81 23 169 -1 246 -97 349 -377 406 -88 18 -405 26 -505 14z
m508 -284 c65 -24 90 -52 90 -98 0 -89 -93 -189 -243 -263 -51 -24 -103 -47
-118 -50 l-25 -6 -30 193 c-16 106 -29 202 -29 213 0 16 9 21 40 27 72 12 266
2 315 -16z"/>
</g>
</svg>
